<svg xmlns="http://www.w3.org/2000/svg" viewBox="0 0 750 500"><g id="freepik--background-simple--inject-35"><path d="M609.4,78.84a287.16,287.16,0,0,0-53.85-24c-38.88-12.7-80.1-17.67-120.91-17.2C319.53,39,281.6,95.54,207.08,94.21S39.28,141.73,33.41,225.29s16,128.42,82.51,163.69,184.31-15.3,280.13,1.33,183,41.92,248.86,3.33c62.54-36.64,85.79-118.13,69.56-186C701,151.49,658.38,107,609.4,78.84Z" style="fill:#FFC100"></path><path d="M609.4,78.84a287.16,287.16,0,0,0-53.85-24c-38.88-12.7-80.1-17.67-120.91-17.2C319.53,39,281.6,95.54,207.08,94.21S39.28,141.73,33.41,225.29s16,128.42,82.51,163.69,184.31-15.3,280.13,1.33,183,41.92,248.86,3.33c62.54-36.64,85.79-118.13,69.56-186C701,151.49,658.38,107,609.4,78.84Z" style="fill:#fff;opacity:0.7000000000000001"></path></g><g id="freepik--text-4--inject-35"><path d="M603.35,378.41v-2.33a5,5,0,0,1-3.87-1.66,7.62,7.62,0,0,1-1.38-4.64l3.54-.6a10.32,10.32,0,0,0,.26,2.09,2.67,2.67,0,0,0,.64,1.26,1.57,1.57,0,0,0,1.11.41,1.13,1.13,0,0,0,1.06-.5,2.31,2.31,0,0,0,.29-1.15,3.75,3.75,0,0,0-.59-2.15,8.59,8.59,0,0,0-1.62-1.74l-2.13-1.83a13.86,13.86,0,0,1-1.3-1.38,5.67,5.67,0,0,1-.92-1.61,6.18,6.18,0,0,1-.34-2.13,4.88,4.88,0,0,1,1.35-3.67,5.55,5.55,0,0,1,3.59-1.5v-2.23h1.21v2.23a4.65,4.65,0,0,1,2.22.62,3.87,3.87,0,0,1,1.32,1.35,6.64,6.64,0,0,1,.65,1.78,14.37,14.37,0,0,1,.25,1.87l-3.59.53a12.28,12.28,0,0,0-.15-1.64,2.35,2.35,0,0,0-.45-1.12,1.17,1.17,0,0,0-1-.38,1.28,1.28,0,0,0-1.07.55,2.08,2.08,0,0,0-.36,1.18,2.92,2.92,0,0,0,.55,1.86,11.24,11.24,0,0,0,1.25,1.35L606,365a12.41,12.41,0,0,1,1.53,1.63,7.52,7.52,0,0,1,1.13,1.94,6.49,6.49,0,0,1,.43,2.45,5.38,5.38,0,0,1-.54,2.42,4.44,4.44,0,0,1-1.56,1.77,5,5,0,0,1-2.39.8v2.36Z" style="fill:#263238"></path><path d="M610.67,375.83v-2.74l4.94-7.6c.37-.57.72-1.11,1-1.63a9.11,9.11,0,0,0,.8-1.59,4.8,4.8,0,0,0,.32-1.74,2.53,2.53,0,0,0-.38-1.5,1.26,1.26,0,0,0-1.08-.51,1.55,1.55,0,0,0-1.15.41,2.21,2.21,0,0,0-.55,1.09,6.94,6.94,0,0,0-.15,1.48v1h-3.79v-1a8.71,8.71,0,0,1,.56-3.21,4.64,4.64,0,0,1,1.78-2.19,5.79,5.79,0,0,1,3.2-.79,5.38,5.38,0,0,1,4,1.4,5.46,5.46,0,0,1,1.35,3.94,6.63,6.63,0,0,1-.37,2.27,10.41,10.41,0,0,1-1,2c-.41.64-.85,1.31-1.32,2l-3.91,5.9h6v3.06Z" style="fill:#263238"></path><path d="M624,379.29l-.3-1.28a3.3,3.3,0,0,0,1.18-.69,2,2,0,0,0,.52-1.49h-2v-3.67h3.64v3.24a4.52,4.52,0,0,1-.78,2.73A3.16,3.16,0,0,1,624,379.29Z" style="fill:#263238"></path><path d="M634.9,375.83v-4.75h-6.17v-3L634,355.51h4.51v12.61h2v3h-2v4.75Zm-3.11-7.71h3.11V359.5Z" style="fill:#263238"></path><path d="M647.41,376.1a6.6,6.6,0,0,1-3-.59,3.52,3.52,0,0,1-1.63-1.75,7.31,7.31,0,0,1-.5-2.85v-.3h3.66a5,5,0,0,0,.27,1.9c.17.42.59.63,1.24.63a1.17,1.17,0,0,0,.93-.37,2.69,2.69,0,0,0,.45-1.28,19.6,19.6,0,0,0,.12-2.44V367a2.21,2.21,0,0,1-1,.85,4.21,4.21,0,0,1-1.56.33,3.84,3.84,0,0,1-2.61-.79,4.48,4.48,0,0,1-1.39-2.19,10.49,10.49,0,0,1-.41-3.06,11.2,11.2,0,0,1,.52-3.62,4.63,4.63,0,0,1,1.75-2.38,5.42,5.42,0,0,1,3.19-.85,5.52,5.52,0,0,1,3.14.81,4.64,4.64,0,0,1,1.75,2.27,9.56,9.56,0,0,1,.56,3.41v7.4a12.59,12.59,0,0,1-.46,3.56,4.58,4.58,0,0,1-1.63,2.49A5.42,5.42,0,0,1,647.41,376.1Zm0-10.91a1.38,1.38,0,0,0,.94-.31,3.1,3.1,0,0,0,.56-.62V361a7.87,7.87,0,0,0-.12-1.43,2.52,2.52,0,0,0-.45-1.06,1.19,1.19,0,0,0-1-.4,1.15,1.15,0,0,0-.95.43,2.56,2.56,0,0,0-.44,1.2,14.31,14.31,0,0,0-.11,1.88c0,.69,0,1.3.07,1.84a2.6,2.6,0,0,0,.39,1.25A1.22,1.22,0,0,0,647.44,365.19Z" style="fill:#263238"></path><path d="M660.66,376.18a5.94,5.94,0,0,1-3.23-.77,4.36,4.36,0,0,1-1.72-2.16,9,9,0,0,1-.52-3.19v-.73h3.86V370a9.36,9.36,0,0,0,.16,1.61,1.89,1.89,0,0,0,.49,1,1.43,1.43,0,0,0,1,.33,1.36,1.36,0,0,0,1-.34,1.9,1.9,0,0,0,.45-1,8.17,8.17,0,0,0,.13-1.61,5,5,0,0,0-.46-2.37,1.88,1.88,0,0,0-1.8-.86h-.68v-2.86h.6a2.09,2.09,0,0,0,1.85-.73,4.24,4.24,0,0,0,.49-2.28,4.17,4.17,0,0,0-.35-1.88,1.33,1.33,0,0,0-1.31-.68,1.21,1.21,0,0,0-1.25.75,5.68,5.68,0,0,0-.33,1.93v.91h-3.86V360.8a6.48,6.48,0,0,1,.65-3,4.41,4.41,0,0,1,1.86-1.89,6,6,0,0,1,2.93-.66,6.41,6.41,0,0,1,3,.63,4.29,4.29,0,0,1,1.87,1.83,6.27,6.27,0,0,1,.64,3,5.53,5.53,0,0,1-.74,3,3.3,3.3,0,0,1-1.82,1.5,3.32,3.32,0,0,1,1.33.83,3.85,3.85,0,0,1,.9,1.54,7.47,7.47,0,0,1,.33,2.4,9.25,9.25,0,0,1-.53,3.24,4.42,4.42,0,0,1-1.73,2.22A5.59,5.59,0,0,1,660.66,376.18Z" style="fill:#263238"></path><path d="M668.58,379.29l-.3-1.28a3.14,3.14,0,0,0,1.18-.69,2,2,0,0,0,.53-1.49h-2v-3.67h3.64v3.24a4.45,4.45,0,0,1-.78,2.73A3.16,3.16,0,0,1,668.58,379.29Z" style="fill:#263238"></path><path d="M679.09,376.1a6.57,6.57,0,0,1-3-.59,3.52,3.52,0,0,1-1.63-1.75,7.31,7.31,0,0,1-.5-2.85v-.3h3.66a5,5,0,0,0,.27,1.9c.17.42.58.63,1.24.63a1.14,1.14,0,0,0,.92-.37,2.58,2.58,0,0,0,.46-1.28,19.6,19.6,0,0,0,.12-2.44V367a2.24,2.24,0,0,1-1,.85,4.15,4.15,0,0,1-1.55.33,3.84,3.84,0,0,1-2.61-.79,4.41,4.41,0,0,1-1.39-2.19,10.48,10.48,0,0,1-.42-3.06,11.19,11.19,0,0,1,.53-3.62,4.67,4.67,0,0,1,1.74-2.38,5.46,5.46,0,0,1,3.2-.85,5.54,5.54,0,0,1,3.14.81,4.7,4.7,0,0,1,1.75,2.27,9.56,9.56,0,0,1,.55,3.41v7.4a13,13,0,0,1-.45,3.56,4.58,4.58,0,0,1-1.63,2.49A5.42,5.42,0,0,1,679.09,376.1Zm0-10.91a1.4,1.4,0,0,0,.94-.31,3.1,3.1,0,0,0,.56-.62V361a7.87,7.87,0,0,0-.12-1.43,2.41,2.41,0,0,0-.46-1.06,1.16,1.16,0,0,0-.95-.4,1.13,1.13,0,0,0-1,.43,2.45,2.45,0,0,0-.44,1.2,12.76,12.76,0,0,0-.11,1.88c0,.69,0,1.3.07,1.84a2.6,2.6,0,0,0,.39,1.25A1.21,1.21,0,0,0,679.12,365.19Z" style="fill:#263238"></path><path d="M692.79,375.83v-4.75h-6.17v-3l5.29-12.54h4.51v12.61h2v3h-2v4.75Zm-3.11-7.71h3.11V359.5Z" style="fill:#263238"></path><path d="M705.15,376.18a5.71,5.71,0,0,1-3.26-.78,3.89,3.89,0,0,1-1.54-2.18,11.53,11.53,0,0,1-.42-3.29h3.74a10.69,10.69,0,0,0,.14,1.86,2.16,2.16,0,0,0,.5,1.13,1.41,1.41,0,0,0,1.09.35,1.2,1.2,0,0,0,1.06-.56,3.46,3.46,0,0,0,.4-1.5c0-.65.07-1.42.07-2.31a13.3,13.3,0,0,0-.12-1.9,2.92,2.92,0,0,0-.49-1.31,1.35,1.35,0,0,0-1.12-.47,1.49,1.49,0,0,0-1.12.47,2.92,2.92,0,0,0-.63,1.36h-3.32l.28-11.54h9.33v3.33H703.6l-.23,4.49a2.43,2.43,0,0,1,1-.65,5.08,5.08,0,0,1,1.54-.32,3.73,3.73,0,0,1,2.62.6,4.37,4.37,0,0,1,1.54,2.22,11,11,0,0,1,.5,3.57,19.63,19.63,0,0,1-.2,3,6.5,6.5,0,0,1-.77,2.36,3.93,3.93,0,0,1-1.66,1.54A6.16,6.16,0,0,1,705.15,376.18Z" style="fill:#263238"></path></g><g id="freepik--text-3--inject-35"><path d="M241.2,55.06l.19-11.34h2.45l1.4,7.15,1.5-7.15h2.37l.19,11.34h-1.68l-.18-7.69L246,55.06h-1.44l-1.51-7.75-.16,7.75Z" style="fill:#263238"></path><path d="M254.13,55.21a3.73,3.73,0,0,1-2-.45,2.5,2.5,0,0,1-1-1.28,5.61,5.61,0,0,1-.32-2V47.26a5.57,5.57,0,0,1,.32-2,2.45,2.45,0,0,1,1-1.26,4.75,4.75,0,0,1,4,0,2.42,2.42,0,0,1,1.05,1.26,5.49,5.49,0,0,1,.31,2v4.23a5.62,5.62,0,0,1-.31,2,2.47,2.47,0,0,1-1.05,1.28A3.82,3.82,0,0,1,254.13,55.21Zm0-1.67a.9.9,0,0,0,.66-.2,1,1,0,0,0,.28-.54,3.51,3.51,0,0,0,.07-.74V46.7a3.35,3.35,0,0,0-.07-.73,1,1,0,0,0-.28-.54,1,1,0,0,0-.66-.2.9.9,0,0,0-.63.2,1.08,1.08,0,0,0-.28.54,4.11,4.11,0,0,0-.07.73v5.36a4.32,4.32,0,0,0,.07.74,1,1,0,0,0,.27.54A.88.88,0,0,0,254.13,53.54Z" style="fill:#263238"></path><path d="M259,55.06V43.72h1.61l2.52,5.9v-5.9h1.91V55.06h-1.54L261,48.78v6.28Z" style="fill:#263238"></path><path d="M267.85,55.06V45.44H266.1V43.72h5.8v1.72h-1.72v9.62Z" style="fill:#263238"></path><path d="M273,55.06V43.72h2.31v4.66h2V43.72h2.31V55.06h-2.31V50h-2v5Z" style="fill:#263238"></path><path d="M281.32,55.06V43.72h2.31v9.77h2.66v1.57Z" style="fill:#263238"></path><path d="M288,55.06v-4.5l-2.21-6.84H288l1.22,4,1.13-4h2.1l-2.18,6.84v4.5Z" style="fill:#263238"></path><path d="M296.81,55.06V43.72h2.94a6.29,6.29,0,0,1,2,.26,2.24,2.24,0,0,1,1.26.91,3.2,3.2,0,0,1,.44,1.82,5.73,5.73,0,0,1-.12,1.24,2.29,2.29,0,0,1-.41.94,2.15,2.15,0,0,1-.85.64l1.57,5.53h-2.37l-1.3-5.14h-.81v5.14Zm2.31-6.51h.67a1.69,1.69,0,0,0,.88-.19,1,1,0,0,0,.45-.55,2.7,2.7,0,0,0,.14-.92A2.07,2.07,0,0,0,301,45.7a1.21,1.21,0,0,0-1.07-.42h-.78Z" style="fill:#263238"></path><path d="M304.93,55.06V43.72h4.94v1.59h-2.63v3h2v1.61h-2v3.56h2.66v1.57Z" style="fill:#263238"></path><path d="M311.06,55.06V43.72h3.6a3.26,3.26,0,0,1,1.66.38,2.37,2.37,0,0,1,1,1.11A4.48,4.48,0,0,1,317.6,47a3.62,3.62,0,0,1-.42,1.9,2.32,2.32,0,0,1-1.12,1,4.44,4.44,0,0,1-1.64.28h-1.05v4.92Zm2.31-6.54h.81a1.65,1.65,0,0,0,.78-.16.86.86,0,0,0,.37-.51,3.73,3.73,0,0,0,.1-.9,4.3,4.3,0,0,0-.08-.87.91.91,0,0,0-.34-.54,1.44,1.44,0,0,0-.84-.2h-.8Z" style="fill:#263238"></path><path d="M322,55.21a3.71,3.71,0,0,1-2-.45,2.47,2.47,0,0,1-1.05-1.28,5.62,5.62,0,0,1-.31-2V47.26a5.58,5.58,0,0,1,.31-2A2.42,2.42,0,0,1,320,44a4.72,4.72,0,0,1,4,0A2.42,2.42,0,0,1,325,45.28a5.47,5.47,0,0,1,.32,2v4.23a5.61,5.61,0,0,1-.32,2,2.47,2.47,0,0,1-1.05,1.28A3.78,3.78,0,0,1,322,55.21Zm0-1.67a.9.9,0,0,0,.66-.2,1,1,0,0,0,.28-.54,4.32,4.32,0,0,0,.07-.74V46.7a4.11,4.11,0,0,0-.07-.73,1.08,1.08,0,0,0-.28-.54,1,1,0,0,0-.66-.2.9.9,0,0,0-.63.2A1.08,1.08,0,0,0,321,46a3.35,3.35,0,0,0-.07.73v5.36a4.35,4.35,0,0,0,.06.74,1,1,0,0,0,.28.54A.86.86,0,0,0,322,53.54Z" style="fill:#263238"></path><path d="M326.85,55.06V43.72h2.94a6.4,6.4,0,0,1,2,.26,2.31,2.31,0,0,1,1.26.91,3.29,3.29,0,0,1,.44,1.82,5.73,5.73,0,0,1-.12,1.24,2.44,2.44,0,0,1-.42.94,2,2,0,0,1-.85.64l1.57,5.53h-2.37L330,49.92h-.81v5.14Zm2.31-6.51h.67a1.69,1.69,0,0,0,.88-.19,1,1,0,0,0,.46-.55,2.72,2.72,0,0,0,.13-.92A2,2,0,0,0,331,45.7a1.2,1.2,0,0,0-1.07-.42h-.78Z" style="fill:#263238"></path><path d="M336,55.06V45.44h-1.75V43.72H340v1.72h-1.72v9.62Z" style="fill:#263238"></path></g><g id="freepik--text-2--inject-35"><path d="M38.7,114V102.61h3.6A3.14,3.14,0,0,1,44,103a2.37,2.37,0,0,1,1,1.11,4.48,4.48,0,0,1,.32,1.77,3.75,3.75,0,0,1-.41,1.9,2.38,2.38,0,0,1-1.13,1,4.41,4.41,0,0,1-1.64.28H41V114ZM41,107.41h.81a1.62,1.62,0,0,0,.78-.16.82.82,0,0,0,.37-.51,3.29,3.29,0,0,0,.1-.9A4.3,4.3,0,0,0,43,105a.86.86,0,0,0-.34-.54,1.44,1.44,0,0,0-.84-.2H41Z" style="fill:#263238"></path><path d="M46.34,114V102.61h2.31v9.77h2.66V114Z" style="fill:#263238"></path><path d="M51.85,114,54,102.61h2.57L58.79,114H56.65l-.41-2.5H54.45L54,114ZM54.66,110H56l-.69-4.58Z" style="fill:#263238"></path><path d="M60.92,114v-4.5l-2.21-6.84h2.17l1.21,4,1.14-4h2.1l-2.19,6.84V114Z" style="fill:#263238"></path><path d="M66.21,114V102.61h4.94v1.59H68.52v3h2v1.61h-2v3.56h2.66V114Z" style="fill:#263238"></path><path d="M72.34,114V102.61h2.94a6.36,6.36,0,0,1,2,.26,2.24,2.24,0,0,1,1.26.91A3.29,3.29,0,0,1,79,105.6a5.73,5.73,0,0,1-.12,1.24,2.44,2.44,0,0,1-.42.94,2,2,0,0,1-.85.64L79.13,114H76.77l-1.31-5.14h-.81V114Zm2.31-6.51h.67a1.73,1.73,0,0,0,.89-.19,1,1,0,0,0,.45-.55,2.72,2.72,0,0,0,.13-.92,2.07,2.07,0,0,0-.28-1.19,1.21,1.21,0,0,0-1.07-.42h-.79Z" style="fill:#263238"></path><path d="M83.4,114.1a3.68,3.68,0,0,1-1.75-.38,2.45,2.45,0,0,1-1.05-1.17,5.3,5.3,0,0,1-.42-2l2-.33a6,6,0,0,0,.15,1.17,1.49,1.49,0,0,0,.36.7.87.87,0,0,0,.61.23.66.66,0,0,0,.61-.28,1.25,1.25,0,0,0,.16-.65,2,2,0,0,0-.34-1.19,5.43,5.43,0,0,0-.91-1l-1.17-1a4.87,4.87,0,0,1-1-1.2,3.17,3.17,0,0,1-.4-1.66,2.72,2.72,0,0,1,.82-2.14,3.2,3.2,0,0,1,2.25-.75,3,3,0,0,1,1.4.28,2,2,0,0,1,.84.75,3.06,3.06,0,0,1,.42,1,6.92,6.92,0,0,1,.15,1.1l-2,.29c0-.35-.05-.65-.09-.91a1.31,1.31,0,0,0-.26-.62.68.68,0,0,0-.56-.22.68.68,0,0,0-.61.3,1.19,1.19,0,0,0-.19.67,1.65,1.65,0,0,0,.27,1,4.55,4.55,0,0,0,.75.81l1.15,1a6.78,6.78,0,0,1,1.22,1.4,3.55,3.55,0,0,1,.51,2,2.9,2.9,0,0,1-.36,1.44,2.65,2.65,0,0,1-1,1A3.16,3.16,0,0,1,83.4,114.1Z" style="fill:#263238"></path></g><g id="freepik--text-1--inject-35"><path d="M47.11,181.45,51.2,164.8H45.88V162h8.95v2.45l-4.11,17Z" style="fill:#263238"></path><path d="M61.9,181.73a5.59,5.59,0,0,1-3.08-.75,4.12,4.12,0,0,1-1.64-2.13,9.22,9.22,0,0,1-.5-3.13,7,7,0,0,1,.15-1.49,5.07,5.07,0,0,1,.43-1.28,4.33,4.33,0,0,1,.71-1,3.35,3.35,0,0,1,1-.73,5,5,0,0,1-1.38-1.63,5.47,5.47,0,0,1-.62-2.66,6.23,6.23,0,0,1,.53-2.77,4,4,0,0,1,1.66-1.8,6.41,6.41,0,0,1,5.5,0,3.83,3.83,0,0,1,1.62,1.8,6.38,6.38,0,0,1,.51,2.77,5.82,5.82,0,0,1-.59,2.69,4.48,4.48,0,0,1-1.39,1.6,3.35,3.35,0,0,1,1,.73,4.33,4.33,0,0,1,.71,1,5.52,5.52,0,0,1,.45,1.28,7,7,0,0,1,.15,1.49,8.15,8.15,0,0,1-.46,3.13A4.38,4.38,0,0,1,65,181,5.62,5.62,0,0,1,61.9,181.73Zm0-2.76a1.19,1.19,0,0,0,1-.48,2.68,2.68,0,0,0,.43-1.18,9.14,9.14,0,0,0,.1-1.35,8.12,8.12,0,0,0-.09-1.49,2.62,2.62,0,0,0-.44-1.18,1.23,1.23,0,0,0-1-.46,1.21,1.21,0,0,0-1,.46,2.59,2.59,0,0,0-.46,1.17,10.21,10.21,0,0,0-.1,1.5,10.82,10.82,0,0,0,.09,1.36,2.5,2.5,0,0,0,.45,1.18A1.22,1.22,0,0,0,61.9,179Zm0-9.17a1,1,0,0,0,.79-.36,2.4,2.4,0,0,0,.44-1,7.4,7.4,0,0,0,.15-1.59,3.62,3.62,0,0,0-.33-1.67,1.09,1.09,0,0,0-1.05-.64,1.14,1.14,0,0,0-1.07.64,3.41,3.41,0,0,0-.35,1.64,8.28,8.28,0,0,0,.14,1.6,2.13,2.13,0,0,0,.45,1.05A1.08,1.08,0,0,0,61.9,169.8Z" style="fill:#263238"></path><path d="M71.24,169.83a2.35,2.35,0,0,1-1.95-.74,3.46,3.46,0,0,1-.58-2.18v-.57a3.37,3.37,0,0,1,.57-2.17,2.43,2.43,0,0,1,2-.69,2.48,2.48,0,0,1,2,.68,3.27,3.27,0,0,1,.57,2.13V167a3.4,3.4,0,0,1-.58,2.15A2.35,2.35,0,0,1,71.24,169.83Zm0-1.38a.66.66,0,0,0,.53-.19,1.06,1.06,0,0,0,.21-.56,7,7,0,0,0,0-.85v-.49a4.44,4.44,0,0,0-.1-1.11c-.07-.25-.3-.38-.68-.38s-.59.13-.66.37a3.9,3.9,0,0,0-.12,1.12v.5a6.82,6.82,0,0,0,.05.85,1.06,1.06,0,0,0,.22.55A.63.63,0,0,0,71.24,168.45Zm1.37,6.34L76,163.51h1.27l-3.38,11.28Zm6,0a2.32,2.32,0,0,1-2-.73,3.48,3.48,0,0,1-.58-2.18v-.58a3.47,3.47,0,0,1,.56-2.16,2.44,2.44,0,0,1,2-.69,2.48,2.48,0,0,1,2,.67,3.28,3.28,0,0,1,.57,2.14v.64a3.41,3.41,0,0,1-.58,2.17A2.41,2.41,0,0,1,78.62,174.81Zm0-1.37a.66.66,0,0,0,.53-.2,1.11,1.11,0,0,0,.2-.55,5.13,5.13,0,0,0,.05-.83v-.51a3.93,3.93,0,0,0-.11-1.12c-.07-.25-.3-.37-.67-.37s-.59.12-.66.37a4,4,0,0,0-.12,1.12v.51a6.6,6.6,0,0,0,0,.83.89.89,0,0,0,.21.55A.67.67,0,0,0,78.62,173.44Z" style="fill:#263238"></path></g><g id="freepik--chart-5--inject-35"><rect x="593.52" y="321.4" width="11.27" height="23.44" style="fill:#263238;stroke:#263238;stroke-linecap:round;stroke-linejoin:round"></rect><rect x="608.1" y="275.69" width="11.27" height="69.14" style="fill:#FFC100;stroke:#263238;stroke-linecap:round;stroke-linejoin:round"></rect><rect x="622.68" y="318.47" width="11.27" height="26.37" style="fill:#263238;stroke:#263238;stroke-linecap:round;stroke-linejoin:round"></rect><rect x="637.26" y="306.16" width="11.27" height="38.67" style="fill:#FFC100;stroke:#263238;stroke-linecap:round;stroke-linejoin:round"></rect><rect x="651.84" y="315.54" width="11.27" height="29.3" style="fill:#263238;stroke:#263238;stroke-linecap:round;stroke-linejoin:round"></rect><rect x="666.42" y="306.16" width="11.27" height="38.67" style="fill:#FFC100;stroke:#263238;stroke-linecap:round;stroke-linejoin:round"></rect><rect x="681" y="290.93" width="11.27" height="53.91" style="fill:#263238;stroke:#263238;stroke-linecap:round;stroke-linejoin:round"></rect><rect x="695.58" y="306.16" width="11.27" height="38.67" style="fill:#FFC100;stroke:#263238;stroke-linecap:round;stroke-linejoin:round"></rect><rect x="710.16" y="328.43" width="11.27" height="16.41" style="fill:#263238;stroke:#263238;stroke-linecap:round;stroke-linejoin:round"></rect><line x1="593.52" y1="252.26" x2="630.44" y2="252.26" style="fill:none;stroke:#263238;stroke-linecap:round;stroke-linejoin:round;stroke-width:3px"></line><line x1="593.52" y1="259.87" x2="654.46" y2="259.87" style="fill:none;stroke:#263238;stroke-linecap:round;stroke-linejoin:round"></line></g><g id="freepik--chart-4--inject-35"><polyline points="588.93 97.3 656.9 97.3 656.9 178.75" style="fill:none;stroke:#263238;stroke-linecap:round;stroke-linejoin:round"></polyline><polyline points="657.49 160 716.67 160 716.67 178.45" style="fill:none;stroke:#263238;stroke-linecap:round;stroke-linejoin:round"></polyline><line x1="687.96" y1="160.58" x2="687.96" y2="178.45" style="fill:none;stroke:#263238;stroke-linecap:round;stroke-linejoin:round"></line><polyline points="563.15 113.71 563.15 174.06 589.52 174.06" style="fill:none;stroke:#263238;stroke-linecap:round;stroke-linejoin:round"></polyline><rect x="540.89" y="82.65" width="51.49" height="34.36" rx="5.66" style="fill:#FFC100;stroke:#263238;stroke-linecap:round;stroke-linejoin:round"></rect><rect x="574.28" y="154.72" width="51.49" height="34.36" rx="5.66" style="fill:#263238;stroke:#263238;stroke-linecap:round;stroke-linejoin:round"></rect><rect x="636.98" y="115.46" width="51.49" height="34.36" rx="5.66" style="fill:#fff;stroke:#263238;stroke-linecap:round;stroke-linejoin:round"></rect><rect x="643.12" y="169.86" width="25.75" height="17.18" rx="4.43" style="fill:#FFC100;stroke:#263238;stroke-linecap:round;stroke-linejoin:round"></rect><rect x="673.32" y="169.86" width="25.75" height="17.18" rx="4.43" style="fill:#FFC100;stroke:#263238;stroke-linecap:round;stroke-linejoin:round"></rect><rect x="703.53" y="169.86" width="25.75" height="17.18" rx="4.43" style="fill:#FFC100;stroke:#263238;stroke-linecap:round;stroke-linejoin:round"></rect><line x1="555.5" y1="99.27" x2="576.98" y2="99.27" style="fill:none;stroke:#263238;stroke-linecap:round;stroke-linejoin:round"></line><line x1="589.16" y1="171.6" x2="610.64" y2="171.6" style="fill:none;stroke:#fff;stroke-linecap:round;stroke-linejoin:round"></line><line x1="589.16" y1="175.9" x2="610.64" y2="175.9" style="fill:none;stroke:#fff;stroke-linecap:round;stroke-linejoin:round"></line><line x1="650.03" y1="134.36" x2="680.11" y2="134.36" style="fill:none;stroke:#263238;stroke-linecap:round;stroke-linejoin:round"></line><line x1="650.03" y1="130.35" x2="680.11" y2="130.35" style="fill:none;stroke:#263238;stroke-linecap:round;stroke-linejoin:round"></line></g><g id="freepik--chart-3--inject-35"><line x1="240.73" y1="142.63" x2="240.73" y2="150.13" style="fill:none;stroke:#263238;stroke-linecap:round;stroke-linejoin:round"></line><line x1="259.27" y1="142.63" x2="259.27" y2="150.13" style="fill:none;stroke:#263238;stroke-linecap:round;stroke-linejoin:round"></line><line x1="277.8" y1="142.63" x2="277.8" y2="150.13" style="fill:none;stroke:#263238;stroke-linecap:round;stroke-linejoin:round"></line><line x1="296.34" y1="142.63" x2="296.34" y2="150.13" style="fill:none;stroke:#263238;stroke-linecap:round;stroke-linejoin:round"></line><line x1="314.88" y1="142.63" x2="314.88" y2="150.13" style="fill:none;stroke:#263238;stroke-linecap:round;stroke-linejoin:round"></line><line x1="333.42" y1="142.63" x2="333.42" y2="150.13" style="fill:none;stroke:#263238;stroke-linecap:round;stroke-linejoin:round"></line><line x1="351.96" y1="142.63" x2="351.96" y2="150.13" style="fill:none;stroke:#263238;stroke-linecap:round;stroke-linejoin:round"></line><line x1="370.5" y1="142.63" x2="370.5" y2="150.13" style="fill:none;stroke:#263238;stroke-linecap:round;stroke-linejoin:round"></line><line x1="389.04" y1="142.63" x2="389.04" y2="150.13" style="fill:none;stroke:#263238;stroke-linecap:round;stroke-linejoin:round"></line><line x1="407.51" y1="142.63" x2="407.51" y2="150.13" style="fill:none;stroke:#263238;stroke-linecap:round;stroke-linejoin:round"></line><line x1="426.05" y1="142.63" x2="426.05" y2="150.13" style="fill:none;stroke:#263238;stroke-linecap:round;stroke-linejoin:round"></line><line x1="444.59" y1="142.63" x2="444.59" y2="150.13" style="fill:none;stroke:#263238;stroke-linecap:round;stroke-linejoin:round"></line><line x1="463.07" y1="142.63" x2="463.07" y2="150.13" style="fill:none;stroke:#263238;stroke-linecap:round;stroke-linejoin:round"></line><line x1="481.61" y1="142.63" x2="481.61" y2="150.13" style="fill:none;stroke:#263238;stroke-linecap:round;stroke-linejoin:round"></line><line x1="500.15" y1="142.63" x2="500.15" y2="150.13" style="fill:none;stroke:#263238;stroke-linecap:round;stroke-linejoin:round"></line><line x1="234.81" y1="142.63" x2="503.9" y2="142.63" style="fill:none;stroke:#263238;stroke-linecap:round;stroke-linejoin:round"></line><polyline points="249.01 136.72 267.15 123.7 285.3 85.25 304.63 124.49 320.8 103.98 340.13 118.18 359.46 65.17 379.18 101.61 395.75 82.67 411.53 106.88 434.07 93.86 452.16 102.12 469.94 93.86 493.74 65.61" style="fill:none;stroke:#263238;stroke-linecap:round;stroke-linejoin:round;stroke-width:3px"></polyline><polygon points="463.72 40.01 494.19 40.01 494.19 55.25 486.28 55.25 492.43 64.62 481.05 55.25 463.72 55.25 463.72 40.01" style="fill:#263238"></polygon><polygon points="463.72 135.25 494.19 135.25 494.19 120.02 486.28 120.02 492.43 110.64 481.05 120.02 463.72 120.02 463.72 135.25" style="fill:#FFC100"></polygon><polyline points="247.75 119.96 269.94 103.31 287.1 116.94 304.25 102.3 321.4 117.94 344.11 89.19 361.76 99.28 378.92 118.45 396.07 97.76 415.75 84.65 434.41 108.36 453.08 113.91 468.21 112.39 492.43 101.3" style="fill:none;stroke:#FFC100;stroke-linecap:round;stroke-linejoin:round;stroke-width:3px"></polyline></g><g id="freepik--chart-2--inject-35"><path d="M33.9,193.63a34.26,34.26,0,0,0,57.43-7.94" style="fill:none;stroke:#9e9e9e;stroke-miterlimit:10;stroke-width:9px"></path><path d="M30.11,155.05a34.26,34.26,0,0,0,3.79,38.58" style="fill:none;stroke:#FFC100;stroke-miterlimit:10;stroke-width:9px"></path><path d="M91.33,185.69a34.26,34.26,0,0,0-61.22-30.64" style="fill:none;stroke:#263238;stroke-miterlimit:10;stroke-width:9px"></path><path d="M116.73,154.86a4.41,4.41,0,1,0-4.41,4.41A4.4,4.4,0,0,0,116.73,154.86Z" style="fill:#263238"></path><path d="M116.73,173.82a4.41,4.41,0,1,0-4.41,4.41A4.4,4.4,0,0,0,116.73,173.82Z" style="fill:#9e9e9e"></path><path d="M116.73,195.09a4.41,4.41,0,1,0-4.41,4.41A4.41,4.41,0,0,0,116.73,195.09Z" style="fill:#FFC100"></path><line x1="123.35" y1="155.41" x2="169.64" y2="155.41" style="fill:none;stroke:#263238;stroke-linecap:round;stroke-linejoin:round"></line><line x1="123.35" y1="173.6" x2="169.64" y2="173.6" style="fill:none;stroke:#263238;stroke-linecap:round;stroke-linejoin:round"></line><line x1="123.35" y1="195.09" x2="169.64" y2="195.09" style="fill:none;stroke:#263238;stroke-linecap:round;stroke-linejoin:round"></line></g><g id="freepik--chart-1--inject-35"><rect x="24.28" y="257.99" width="131" height="10.14" style="fill:none;stroke:#263238;stroke-linecap:round;stroke-linejoin:round"></rect><rect x="24.28" y="274.05" width="131" height="10.14" style="fill:none;stroke:#263238;stroke-linecap:round;stroke-linejoin:round"></rect><rect x="24.28" y="290.11" width="131" height="10.14" style="fill:none;stroke:#263238;stroke-linecap:round;stroke-linejoin:round"></rect><rect x="24.28" y="306.17" width="131" height="10.14" style="fill:none;stroke:#263238;stroke-linecap:round;stroke-linejoin:round"></rect><rect x="24.28" y="322.22" width="131" height="10.14" style="fill:none;stroke:#263238;stroke-linecap:round;stroke-linejoin:round"></rect><line x1="26.44" y1="250.57" x2="63.35" y2="250.57" style="fill:none;stroke:#263238;stroke-linecap:round;stroke-linejoin:round;stroke-width:3px"></line><line x1="26.44" y1="258.18" x2="87.38" y2="258.18" style="fill:none;stroke:#263238;stroke-linecap:round;stroke-linejoin:round"></line><rect x="24.28" y="272.35" width="131" height="10.14" style="fill:none;stroke:#263238;stroke-linecap:round;stroke-linejoin:round"></rect><rect x="24.28" y="288.4" width="131" height="10.14" style="fill:none;stroke:#263238;stroke-linecap:round;stroke-linejoin:round"></rect><rect x="24.28" y="304.46" width="131" height="10.14" style="fill:none;stroke:#263238;stroke-linecap:round;stroke-linejoin:round"></rect><rect x="24.28" y="320.52" width="131" height="10.14" style="fill:none;stroke:#263238;stroke-linecap:round;stroke-linejoin:round"></rect><rect x="24.28" y="336.58" width="131" height="10.14" style="fill:none;stroke:#263238;stroke-linecap:round;stroke-linejoin:round"></rect><rect x="24.28" y="272.35" width="48.7" height="10.14" style="fill:#263238;stroke:#263238;stroke-linecap:round;stroke-linejoin:round"></rect><rect x="24.28" y="288.4" width="66.03" height="10.14" style="fill:#FFC100;stroke:#263238;stroke-linecap:round;stroke-linejoin:round"></rect><rect x="24.28" y="304.46" width="25.07" height="10.14" style="fill:#263238;stroke:#263238;stroke-linecap:round;stroke-linejoin:round"></rect><rect x="24.28" y="320.52" width="107.76" height="10.14" style="fill:#FFC100;stroke:#263238;stroke-linecap:round;stroke-linejoin:round"></rect><rect x="24.28" y="336.58" width="80.2" height="10.14" style="fill:#263238;stroke:#263238;stroke-linecap:round;stroke-linejoin:round"></rect></g><g id="freepik--Device--inject-35"><rect x="216.64" y="178.54" width="319.46" height="197.47" rx="9.59" style="fill:#263238;stroke:#263238;stroke-linecap:round;stroke-linejoin:round"></rect><rect x="227.8" y="189.39" width="297.15" height="175.76" rx="9.29" style="fill:#fff;stroke:#263238;stroke-linecap:round;stroke-linejoin:round"></rect><polygon points="523.98 250.19 523.98 340.67 394.71 340.67 394.71 305.14 437.63 305.14 437.63 273.08 476.6 273.08 476.6 245.95 523.46 245.95 523.98 250.19" style="fill:#FFC100"></polygon><path d="M525,341.66v14.2a9.29,9.29,0,0,1-9.29,9.29H237.09a9.29,9.29,0,0,1-9.29-9.29v-14.2Z" style="fill:#fff;stroke:#263238;stroke-linecap:round;stroke-linejoin:round"></path><rect x="481.71" y="280.81" width="16.39" height="16.39" rx="1.83" style="fill:#fff;stroke:#263238;stroke-linecap:round;stroke-linejoin:round"></rect><rect x="481.71" y="321.92" width="16.39" height="16.39" rx="1.83" style="fill:#fff;stroke:#263238;stroke-linecap:round;stroke-linejoin:round"></rect><rect x="502.26" y="301.36" width="16.39" height="16.39" rx="1.83" transform="translate(820.02 -200.9) rotate(90)" style="fill:#fff;stroke:#263238;stroke-linecap:round;stroke-linejoin:round"></rect><rect x="461.15" y="301.36" width="16.39" height="16.39" rx="1.83" transform="translate(778.9 -159.79) rotate(90)" style="fill:#fff;stroke:#263238;stroke-linecap:round;stroke-linejoin:round"></rect><path d="M359.17,298.59H338.68a8.23,8.23,0,0,1,0-16.46h12.26v-6.62a8.23,8.23,0,1,1,16.46,0v14.85A8.24,8.24,0,0,1,359.17,298.59Z" style="fill:#fff;stroke:#263238;stroke-linecap:round;stroke-linejoin:round"></path><path d="M363.47,284.12h0a3.41,3.41,0,0,1-3.41-3.41V265.12h6.83v15.59A3.42,3.42,0,0,1,363.47,284.12Z" style="fill:#263238;stroke:#263238;stroke-linecap:round;stroke-linejoin:round"></path><circle cx="334.82" cy="289.47" r="14.55" style="fill:#FFC100;stroke:#263238;stroke-linecap:round;stroke-linejoin:round"></circle><rect x="295.33" y="281.45" width="46.02" height="24.35" rx="6.14" style="fill:#FFC100;stroke:#263238;stroke-linecap:round;stroke-linejoin:round"></rect><path d="M350.85,336.33A7.82,7.82,0,0,1,343,328.5V315.55h-5.53a7.84,7.84,0,1,1,0-15.67h13.36a7.83,7.83,0,0,1,7.84,7.83V328.5A7.83,7.83,0,0,1,350.85,336.33Z" style="fill:#fff;stroke:#263238;stroke-linecap:round;stroke-linejoin:round"></path><path d="M343,315.55V328.5a7.84,7.84,0,0,0,15.67,0V315.55Z" style="fill:#fff;stroke:#263238;stroke-linecap:round;stroke-linejoin:round"></path><path d="M302.75,332.37h-19a7.84,7.84,0,1,1,0-15.68h11.16V308.5a7.84,7.84,0,0,1,15.68,0v16A7.84,7.84,0,0,1,302.75,332.37Z" style="fill:#fff;stroke:#263238;stroke-linecap:round;stroke-linejoin:round"></path><path d="M295.33,315h-.42v1.69H283.75a7.84,7.84,0,1,0,0,15.68h11.58Z" style="fill:#fff;stroke:#263238;stroke-linecap:round;stroke-linejoin:round"></path><path d="M264.74,320.35h15.84a9.69,9.69,0,0,1,9.69,9.69v6.64a0,0,0,0,1,0,0H264.74a0,0,0,0,1,0,0V320.35A0,0,0,0,1,264.74,320.35Z" transform="translate(606.03 51) rotate(90)" style="fill:#263238;stroke:#263238;stroke-linecap:round;stroke-linejoin:round"></path><path d="M267.41,341.73V316.49a1.93,1.93,0,0,1,1.93-1.93h0a1.92,1.92,0,0,1,1.93,1.93v25.24a1.93,1.93,0,0,1-1.93,1.93h0A1.94,1.94,0,0,1,267.41,341.73Z" style="fill:#fff;stroke:#263238;stroke-linecap:round;stroke-linejoin:round"></path><rect x="295.92" y="299.27" width="45.43" height="17.22" style="fill:#263238;stroke:#263238;stroke-linecap:round;stroke-linejoin:round"></rect><rect x="295.92" y="299.27" width="45.43" height="4.35" style="fill:#FFC100;stroke:#263238;stroke-linecap:round;stroke-linejoin:round"></rect><rect x="311.71" y="299.27" width="13.85" height="28.42" style="fill:#FFC100;stroke:#263238;stroke-linecap:round;stroke-linejoin:round"></rect><rect x="300.67" y="264.53" width="31.18" height="19.89" rx="5.59" style="fill:#fff;stroke:#263238;stroke-linecap:round;stroke-linejoin:round"></rect><path d="M316.41,269.28v8.31h16.92v16.93l-15.6-4.15a4.57,4.57,0,0,1-3.4-4.42v-1.53H303.44a3.36,3.36,0,0,1-3.36-3.36V268.91S316.41,268.09,316.41,269.28Z" style="fill:#263238;stroke:#263238;stroke-linecap:round;stroke-linejoin:round"></path><circle cx="330.96" cy="275.21" r="4.22" style="fill:#fff;stroke:#263238;stroke-linecap:round;stroke-linejoin:round"></circle><path d="M326.22,257.42l-11.3-5.37-9.49,5.22a10.89,10.89,0,0,0-5.65,9.54v4.25h32.66v-3.81A10.88,10.88,0,0,0,326.22,257.42Z" style="fill:#FFC100;stroke:#263238;stroke-linecap:round;stroke-linejoin:round"></path><circle cx="303.34" cy="268.09" r="1.19" style="fill:#263238;stroke:#263238;stroke-linecap:round;stroke-linejoin:round"></circle><path d="M311.06,268.09a1.19,1.19,0,1,0-1.18,1.19A1.18,1.18,0,0,0,311.06,268.09Z" style="fill:#263238;stroke:#263238;stroke-linecap:round;stroke-linejoin:round"></path><path d="M317.6,268.09a1.19,1.19,0,1,0-1.19,1.19A1.19,1.19,0,0,0,317.6,268.09Z" style="fill:#263238;stroke:#263238;stroke-linecap:round;stroke-linejoin:round"></path><path d="M324.13,268.09a1.19,1.19,0,0,0-2.38,0,1.19,1.19,0,0,0,2.38,0Z" style="fill:#263238;stroke:#263238;stroke-linecap:round;stroke-linejoin:round"></path><path d="M330.66,268.09a1.19,1.19,0,1,0-1.19,1.19A1.19,1.19,0,0,0,330.66,268.09Z" style="fill:#263238;stroke:#263238;stroke-linecap:round;stroke-linejoin:round"></path><rect x="362.82" y="267.79" width="9.8" height="12.47" rx="4.84" style="fill:#fff;stroke:#263238;stroke-linecap:round;stroke-linejoin:round"></rect><path d="M350.94,275.51V272.8a5,5,0,0,1,5-5h4.41a3,3,0,0,1,3,3h0a3,3,0,0,1-3,3h-1.19v5.94" style="fill:#fff;stroke:#263238;stroke-linecap:round;stroke-linejoin:round"></path><polygon points="370.15 232.75 363.92 227.71 357.09 232.75 357.09 264.23 370.15 264.23 370.15 232.75" style="fill:#fff;stroke:#263238;stroke-linecap:round;stroke-linejoin:round"></polygon><path d="M373.27,267.2H352.19a1.63,1.63,0,0,1-1.63-1.64h0a1.63,1.63,0,0,1,1.63-1.63h21.08a1.63,1.63,0,0,1,1.63,1.63h0A1.63,1.63,0,0,1,373.27,267.2Z" style="fill:#fff;stroke:#263238;stroke-linecap:round;stroke-linejoin:round"></path><line x1="363.92" y1="227.71" x2="363.92" y2="263.34" style="fill:none;stroke:#263238;stroke-linecap:round;stroke-linejoin:round"></line><path d="M342.84,324.51h15.84a9.69,9.69,0,0,1,9.69,9.69v6.64a0,0,0,0,1,0,0H342.84a0,0,0,0,1,0,0V324.51A0,0,0,0,1,342.84,324.51Z" style="fill:#263238;stroke:#263238;stroke-linecap:round;stroke-linejoin:round"></path><path d="M368.82,341.43H343.58a1.92,1.92,0,0,1-1.93-1.93h0a1.93,1.93,0,0,1,1.93-1.93h25.24a1.94,1.94,0,0,1,1.93,1.93h0A1.93,1.93,0,0,1,368.82,341.43Z" style="fill:#fff;stroke:#263238;stroke-linecap:round;stroke-linejoin:round"></path><circle cx="289.98" cy="289.47" r="14.55" style="fill:#FFC100;stroke:#263238;stroke-linecap:round;stroke-linejoin:round"></circle><circle cx="283.15" cy="304.02" r="23.81" style="fill:#fff;stroke:#263238;stroke-linecap:round;stroke-linejoin:round"></circle><circle cx="283.15" cy="304.02" r="16.87" style="fill:#fff;stroke:#263238;stroke-linecap:round;stroke-linejoin:round"></circle><path d="M283.11,304.32l-15,7.38a17,17,0,0,0,3.09,4.25,16.83,16.83,0,0,0,4.76,3.32l7.29-14.79-.32.16Z" style="fill:#263238;stroke:#263238;stroke-linecap:round;stroke-linejoin:round"></path><path d="M290.69,288.93l-7.58,15.39.32-.16-.16.32,15.2-7.49a16.65,16.65,0,0,0-3.39-4.9A16.86,16.86,0,0,0,290.69,288.93Z" style="fill:#263238;stroke:#263238;stroke-linecap:round;stroke-linejoin:round"></path><path d="M285.3,306.16a3,3,0,1,0-4.29,0A3,3,0,0,0,285.3,306.16Z" style="fill:#fff;stroke:#263238;stroke-linecap:round;stroke-linejoin:round"></path><path d="M270.13,290.58a1.78,1.78,0,0,0-2.52-2.52,1.79,1.79,0,0,0,0,2.52A1.77,1.77,0,0,0,270.13,290.58Z" style="fill:#fff;stroke:#263238;stroke-linecap:round;stroke-linejoin:round"></path><path d="M298.9,319.34a1.78,1.78,0,1,0-2.52,0A1.76,1.76,0,0,0,298.9,319.34Z" style="fill:#fff;stroke:#263238;stroke-linecap:round;stroke-linejoin:round"></path><path d="M296.38,290.58a1.78,1.78,0,1,0,0-2.52A1.77,1.77,0,0,0,296.38,290.58Z" style="fill:#fff;stroke:#263238;stroke-linecap:round;stroke-linejoin:round"></path><path d="M267.61,319.34a1.78,1.78,0,1,0,0-2.51A1.77,1.77,0,0,0,267.61,319.34Z" style="fill:#fff;stroke:#263238;stroke-linecap:round;stroke-linejoin:round"></path><circle cx="303.6" cy="303.7" r="1.78" style="fill:#fff;stroke:#263238;stroke-linecap:round;stroke-linejoin:round"></circle><circle cx="262.92" cy="303.7" r="1.78" style="fill:#fff;stroke:#263238;stroke-linecap:round;stroke-linejoin:round"></circle><path d="M283.26,285.14a1.78,1.78,0,1,0-1.78-1.78A1.78,1.78,0,0,0,283.26,285.14Z" style="fill:#fff;stroke:#263238;stroke-linecap:round;stroke-linejoin:round"></path><path d="M283.26,325.82a1.78,1.78,0,1,0-1.78-1.78A1.78,1.78,0,0,0,283.26,325.82Z" style="fill:#fff;stroke:#263238;stroke-linecap:round;stroke-linejoin:round"></path><rect x="380.65" y="200.31" width="47.44" height="47.44" rx="7.32" style="fill:#263238"></rect><rect x="241.7" y="200.31" width="47.44" height="47.44" rx="7.32" style="fill:#fff;stroke:#263238;stroke-linecap:round;stroke-linejoin:round"></rect><path d="M407.93,231.09h-8.85v-.89a11,11,0,0,1,.51-3.67,8.2,8.2,0,0,1,1.52-2.57,47.88,47.88,0,0,1,4.56-4.1q1.89-1.55,1.89-2.82a2.61,2.61,0,0,0-.76-2,3.23,3.23,0,0,0-2.3-.71,3.67,3.67,0,0,0-2.73,1.09,6.37,6.37,0,0,0-1.39,3.82l-9-1.11a12.33,12.33,0,0,1,3.62-8q3.17-3,9.68-3a14.27,14.27,0,0,1,8.2,2.12,8.82,8.82,0,0,1,4.25,7.64,7.38,7.38,0,0,1-1.1,3.82,18.79,18.79,0,0,1-4.47,4.5,12,12,0,0,0-3,3A6.18,6.18,0,0,0,407.93,231.09Zm-9.16,2.35h9.48v8.37h-9.48Z" style="fill:#FFC100"></path><circle cx="476.96" cy="224.2" r="14.3" style="fill:#FFC100;stroke:#263238;stroke-linecap:round;stroke-linejoin:round"></circle><circle cx="476.96" cy="224.2" r="10.5" transform="translate(-38.87 116.13) rotate(-13.34)" style="fill:#FFC100;stroke:#263238;stroke-linecap:round;stroke-linejoin:round"></circle><circle cx="332.54" cy="224.2" r="14.3" style="fill:#FFC100;stroke:#263238;stroke-linecap:round;stroke-linejoin:round"></circle><circle cx="332.54" cy="224.2" r="10.5" transform="translate(-42.77 82.8) rotate(-13.34)" style="fill:#FFC100;stroke:#263238;stroke-linecap:round;stroke-linejoin:round"></circle><path d="M446.72,349.88a3.3,3.3,0,0,1-1,2.34l-1.68,1.69-4.68,4.68-4.69-4.68L433,352.22a3.31,3.31,0,1,1,4.68-4.68l1.69,1.68,1.68-1.68a3.31,3.31,0,0,1,4.68,0A3.27,3.27,0,0,1,446.72,349.88Z" style="fill:#FFC100;stroke:#263238;stroke-linecap:round;stroke-linejoin:round"></path><path d="M465.66,349.88a3.3,3.3,0,0,1-1,2.34L463,353.91l-4.68,4.68-4.69-4.68L452,352.22a3.31,3.31,0,1,1,4.68-4.68l1.69,1.68,1.68-1.68a3.31,3.31,0,0,1,4.68,0A3.27,3.27,0,0,1,465.66,349.88Z" style="fill:#FFC100;stroke:#263238;stroke-linecap:round;stroke-linejoin:round"></path><path d="M280.74,218.17a7,7,0,0,1-2.05,5l-3.56,3.57-9.92,9.92-9.92-9.92-3.57-3.57a7,7,0,0,1,9.92-9.92l3.57,3.57,3.56-3.57a7,7,0,0,1,12,5Z" style="fill:#FFC100;stroke:#263238;stroke-linecap:round;stroke-linejoin:round"></path><path d="M484.6,349.88a3.3,3.3,0,0,1-1,2.34L482,353.91l-4.68,4.68-4.68-4.68-1.69-1.69a3.31,3.31,0,0,1,0-4.68,3.31,3.31,0,0,1,4.68,0l1.69,1.68,1.68-1.68a3.31,3.31,0,0,1,4.68,0A3.27,3.27,0,0,1,484.6,349.88Z" style="fill:#FFC100;stroke:#263238;stroke-linecap:round;stroke-linejoin:round"></path><rect x="264.95" y="350.51" width="93.73" height="5.43" style="fill:#FFC100;stroke:#263238;stroke-linecap:round;stroke-linejoin:round"></rect><rect x="363.61" y="350.51" width="12.33" height="5.43" style="fill:#FFC100;stroke:#263238;stroke-linecap:round;stroke-linejoin:round"></rect><path d="M250.28,376H225.93a9.29,9.29,0,0,1-9.29-9.29V258.21c-6.56,4.86-20.17,15.2-24.81,20.61-6.2,7.24-10.85,18.61-12.92,30.5s-9.82,22.23-7.76,27.92,9.83,40.32,12.41,54.27a180.18,180.18,0,0,1,3.1,28.44c0,3.1-7.75,42.38-7.75,42.38l56.34,2.07s-1-19.64,1-25.85,10.85-20.67,9.82-29.46C245.09,400.46,251,385.36,250.28,376Z" style="fill:#fff;stroke:#263238;stroke-linecap:round;stroke-linejoin:round"></path><path d="M216.64,277.69l-5.68,6.6s-2.07,11.07-3.1,16.24a41.57,41.57,0,0,1-3.11,9.31s3.62,8.27,5.69,11.37a29,29,0,0,1,3.1,6.2l3.1,2Z" style="fill:#263238;stroke:#263238;stroke-linecap:round;stroke-linejoin:round"></path><path d="M190.68,311.14a68.29,68.29,0,0,1,8.35-.59" style="fill:none;stroke:#263238;stroke-linecap:round;stroke-linejoin:round"></path><path d="M205,280.12s6,1.79,6,4.17" style="fill:none;stroke:#263238;stroke-linecap:round;stroke-linejoin:round"></path><path d="M169.12,469s2.59-24.54,2.59-27.12v-7.75c0-2.58,2.58-4.52,2.58-4.52s25.18-5.17,50.37,3.23S244,454.82,244,454.82l-1.29,19.38" style="fill:#fff;stroke:#263238;stroke-linecap:round;stroke-linejoin:round"></path><path d="M202.7,347.63s9.29-20.22,10.33-28-1-25.85,1.55-33.08,1-16.55,7.23-20.16,14.48-2.59,16,11.89,0,37.21.51,45,14,19.13,14.48,35.67-5.17,33.6-6.72,40.83-7.76,24.3-7.76,24.3" style="fill:#fff;stroke:#263238;stroke-linecap:round;stroke-linejoin:round"></path><path d="M217.13,283.14a21.47,21.47,0,0,1,9.34-.18,75.14,75.14,0,0,1,8.27,2.07,60.18,60.18,0,0,0,0-10.34s.68-5.91-2.9-8.29-10.74-1.79-13.12,3.58S217.13,283.14,217.13,283.14Z" style="fill:none;stroke:#263238;stroke-linecap:round;stroke-linejoin:round"></path><path d="M230.05,292.65s-11.93-3.58-14.91,1.19" style="fill:none;stroke:#263238;stroke-linecap:round;stroke-linejoin:round"></path><path d="M218.12,295.63s3.58,1.19,11.34.6" style="fill:none;stroke:#263238;stroke-linecap:round;stroke-linejoin:round"></path><path d="M583.57,337.24c2.07-5.69-5.68-16-7.75-27.92s-6.72-23.26-12.92-30.5c-5.19-6-21.55-18.22-26.79-22.06v110a9.29,9.29,0,0,1-9.29,9.29H504.45c-.77,9.35,5.18,24.45,4.17,33.08-1,8.79,7.75,23.26,9.82,29.46s1,25.85,1,25.85l56.35-2.07s-7.75-39.28-7.75-42.38a178.9,178.9,0,0,1,3.1-28.44C573.75,377.56,581.51,342.92,583.57,337.24Z" style="fill:#fff;stroke:#263238;stroke-linecap:round;stroke-linejoin:round"></path><path d="M546.87,300.53c-1-5.17-3.1-16.24-3.1-16.24l-7.66-8.89v55.24l5.07-3.23a29.38,29.38,0,0,1,3.11-6.2c2.06-3.1,5.68-11.37,5.68-11.37A41.27,41.27,0,0,1,546.87,300.53Z" style="fill:#263238;stroke:#263238;stroke-linecap:round;stroke-linejoin:round"></path><path d="M564.05,311.14a68.5,68.5,0,0,0-8.35-.59" style="fill:none;stroke:#263238;stroke-linecap:round;stroke-linejoin:round"></path><path d="M549.73,280.12s-6,1.79-6,4.17" style="fill:none;stroke:#263238;stroke-linecap:round;stroke-linejoin:round"></path><path d="M585.6,469S583,444.49,583,441.91v-7.75c0-2.58-2.58-4.52-2.58-4.52s-25.19-5.17-50.37,3.23-19.38,21.95-19.38,21.95L512,474.2" style="fill:#fff;stroke:#263238;stroke-linecap:round;stroke-linejoin:round"></path><path d="M547.24,352.3S532.81,324.29,530,317s-5-25.38-9.2-31.81-4.86-15.85-11.73-17.93-14.68.85-12.82,15.29,8.65,36.2,10,43.86-9.13,21.85-5.79,38.06,12.84,31.48,16,38.15" style="fill:#fff;stroke:#263238;stroke-linecap:round;stroke-linejoin:round"></path><path d="M517.51,282.43a21.64,21.64,0,0,0-9.12,2,75,75,0,0,0-7.56,3.94,59.19,59.19,0,0,1-2.41-10.06s-2-5.58.89-8.73,10-4.24,13.6.42S517.51,282.43,517.51,282.43Z" style="fill:none;stroke:#263238;stroke-linecap:round;stroke-linejoin:round"></path><path d="M507.16,294.68s10.77-6.26,14.78-2.31" style="fill:none;stroke:#263238;stroke-linecap:round;stroke-linejoin:round"></path><path d="M519.46,294.81s-3.21,2-10.89,3.21" style="fill:none;stroke:#263238;stroke-linecap:round;stroke-linejoin:round"></path></g></svg>