<svg xmlns="http://www.w3.org/2000/svg" viewBox="0 0 500 500"><g id="freepik--Character--inject-23"><polygon points="338 403.73 330.42 401.11 334.48 382.84 342.07 385.47 338 403.73" style="fill:#ff8b7b"></polygon><polygon points="334.48 382.85 332.39 392.26 339.97 394.89 342.07 385.48 334.48 382.85" style="opacity:0.2"></polygon><polygon points="410.93 408.04 402.91 408.04 396.65 389.45 404.68 389.45 410.93 408.04" style="fill:#ff8b7b"></polygon><polygon points="404.68 389.46 396.65 389.46 399.88 399.04 407.91 399.04 404.68 389.46" style="opacity:0.2"></polygon><path d="M401.84,407.11h9.78a.7.7,0,0,1,.68.55l1.59,7.14a1.17,1.17,0,0,1-1.17,1.42c-3.15-.05-5.45-.24-9.42-.24-2.44,0-9.79.26-13.16.26s-3.81-3.33-2.43-3.64c6.18-1.35,10.84-3.21,12.82-5A2,2,0,0,1,401.84,407.11Z" style="fill:#263238"></path><path d="M330.78,400.25l8.28,2.87a.7.7,0,0,1,.47.74l-.84,7.26a1.17,1.17,0,0,1-1.56,1c-3-1.08-7.23-2.75-11-4-4.39-1.52-8.27-2.6-13.42-4.38-3.11-1.08-2.89-4.53-1.48-4.36,6.38.76,11.27,2.29,17.49.91A3.72,3.72,0,0,1,330.78,400.25Z" style="fill:#263238"></path><polygon points="237.23 138.85 319.15 211.77 317.75 213.34 236.56 139.59 237.23 138.85" style="fill:#263238"></polygon><path d="M374.39,166.74c-.58,1.74-1.14,3.25-1.78,4.83s-1.28,3.11-2,4.65q-2.06,4.6-4.55,9.07a78.54,78.54,0,0,1-5.66,8.72,42.83,42.83,0,0,1-7.63,8l-1.21.9c-.41.29-.87.57-1.31.85a23.43,23.43,0,0,1-2.71,1.42,29.82,29.82,0,0,1-5.5,1.83,45.09,45.09,0,0,1-10.71,1.06,68.71,68.71,0,0,1-10.21-1c-1.66-.27-3.31-.64-4.94-1s-3.22-.81-4.92-1.37l1.34-5.87c1.45.12,3.06.24,4.59.32s3.1.09,4.64.11a75.52,75.52,0,0,0,9.09-.44,40.81,40.81,0,0,0,8.37-1.74,20,20,0,0,0,3.53-1.55,12.32,12.32,0,0,0,1.5-.94c.22-.18.44-.33.67-.52l.7-.6A36.37,36.37,0,0,0,351,187.2a81.12,81.12,0,0,0,4.52-7.68c1.4-2.69,2.71-5.46,3.95-8.27q.94-2.12,1.8-4.25c.56-1.41,1.16-2.91,1.64-4.2Z" style="fill:#ff8b7b"></path><path d="M377.65,162.8c1.72,7.47-12.1,28.49-12.1,28.49l-17.33-12.67a98.11,98.11,0,0,1,11.7-17.39C366.68,153.61,375.76,154.59,377.65,162.8Z" style="fill:#263238"></path><path d="M313.62,198.84l-8.56-1.93,1.25,10.17a7.71,7.71,0,0,0,8.51-3.34Z" style="fill:#ff8b7b"></path><polygon points="299.47 196.66 302.25 204.35 306.31 207.08 305.06 196.91 299.47 196.66" style="fill:#ff8b7b"></polygon><path d="M413.56,161.68C403.11,191.6,402.92,224,401.75,230.5c-6.24-.83-29.74-4-42.55-5.73-2.88-45.94,9.74-68.7,9.74-68.7s2.78-.37,6.54-.53c1.18,0,2.45-.08,3.77-.07.73,0,1.47,0,2.22.05A159.1,159.1,0,0,1,399.56,158c1.13.21,2.28.45,3.39.7s2,.49,3,.74C410.25,160.53,413.56,161.68,413.56,161.68Z" style="fill:#263238"></path><path d="M405.94,159.4l-3.36,2.54c-4.27,3.23-9.18,6.22-16.23,6.22-.8,0-1.62,0-2.44-.12-5.84-.58-8.07-3.42-8.92-5.71a8.67,8.67,0,0,1,.49-6.79c1.18,0,2.45-.08,3.77-.07.73,0,1.47,0,2.22.05A159.1,159.1,0,0,1,399.56,158c1.13.21,2.28.45,3.39.7S405,159.15,405.94,159.4Z" style="fill:#407BFF"></path><path d="M400.51,137.35c-1.92,5.67-4.5,16.18-.95,20.61-3.59,2.72-8.21,5.79-15.16,5.1s-5.09-5.28-2.93-7.54c6.7-.67,7.18-5.51,6.66-10.19Z" style="fill:#ff8b7b"></path><path d="M395.46,140.61l-7.32,4.72a19.13,19.13,0,0,1,.12,3.28c2.53,0,6.3-2.28,6.91-4.84A8.7,8.7,0,0,0,395.46,140.61Z" style="opacity:0.2"></path><path d="M385.78,114.61c-6.22-.51-8.37,14.46-4.49,17.33S397.42,115.56,385.78,114.61Z" style="fill:#263238"></path><path d="M402.38,128.69c-1.54,7.81-2.05,12.46-6.58,16-6.8,5.28-16,.36-16.86-7.76-.74-7.31,1.91-18.86,10.05-21A10.87,10.87,0,0,1,402.38,128.69Z" style="fill:#ff8b7b"></path><path d="M400.79,136.33c-3.85,2.4-7.56-18.94,3.13-18.44C417,118.51,409,131.24,400.79,136.33Z" style="fill:#263238"></path><path d="M404.12,120.94c-5.71,1.86-29.9-.59-32.9-6.58a10.89,10.89,0,0,0,5.08-.64s-5.12-1.39-5.94-6.08c9.06,4.63,28.19-1.4,35,3.74C411.05,115.62,408.56,119.5,404.12,120.94Z" style="fill:#263238"></path><path d="M406.89,119s-.33-2.32,6.4.34c-5.56-1-6.22.67-6.22.67Z" style="fill:#263238"></path><path d="M404.77,137.85a7.54,7.54,0,0,1-5.12,2.68c-2.65.22-3.47-2.26-2.32-4.5,1-2,3.67-4.55,6.12-3.72S406.33,136,404.77,137.85Z" style="fill:#ff8b7b"></path><path d="M330.15,389.53,343,394s12.58-49.59,16.52-74.29c1.2-7.51,3.88-17.91,7.12-29,4.08-14,9.05-29.08,13.08-40.89,4.26-12.44,7.45-21.23,7.45-21.23l-28-3.77s-21.31,65.33-23.71,89.71C333,339.83,330.15,389.53,330.15,389.53Z" style="fill:#407BFF"></path><path d="M366.64,290.66c4.08-14,9.05-29.08,13.08-40.89l-2.51-6.47C369.71,251.14,366.19,276.65,366.64,290.66Z" style="opacity:0.2"></path><path d="M374.29,226.81s-1.38,68.77.51,92.21c2.06,25.68,21.3,78.16,21.3,78.16h14.71s-9.81-48-12.82-73c-3.43-28.4,3.76-93.7,3.76-93.7Z" style="fill:#407BFF"></path><polygon points="394.35 397.5 411.66 397.5 411.66 392.33 392.31 391.99 394.35 397.5" style="fill:#263238"></polygon><polygon points="328.43 389.27 343.74 394.57 345.45 389.62 328.43 383.44 328.43 389.27" style="fill:#263238"></polygon><path d="M390.13,129.28c-.08.64-.49,1.11-.91,1.06s-.69-.63-.6-1.27.49-1.11.91-1.06S390.22,128.64,390.13,129.28Z" style="fill:#263238"></path><path d="M382.88,128.3c-.08.64-.49,1.12-.91,1.06s-.69-.62-.61-1.26.5-1.12.92-1.06S383,127.66,382.88,128.3Z" style="fill:#263238"></path><path d="M385.14,128.93a23,23,0,0,1-3.8,5.07,3.71,3.71,0,0,0,3,1Z" style="fill:#ff5652"></path><path d="M386.8,137.07a5.34,5.34,0,0,0,3.91-1.61.19.19,0,1,0-.29-.25,5.11,5.11,0,0,1-4.41,1.43.19.19,0,0,0-.05.38A6.1,6.1,0,0,0,386.8,137.07Z" style="fill:#263238"></path><path d="M392.69,127.24a.41.41,0,0,0,.18,0,.38.38,0,0,0,.15-.52,3.82,3.82,0,0,0-2.86-2,.38.38,0,0,0-.4.36.37.37,0,0,0,.35.4h0a3,3,0,0,1,2.24,1.58A.38.38,0,0,0,392.69,127.24Z" style="fill:#263238"></path><path d="M380.09,125.38a.37.37,0,0,0,.32-.17,3,3,0,0,1,2.36-1.41.39.39,0,0,0,.38-.38.38.38,0,0,0-.38-.38,3.75,3.75,0,0,0-3,1.75.38.38,0,0,0,.1.53A.42.42,0,0,0,380.09,125.38Z" style="fill:#263238"></path><path d="M399.18,408.52a9.76,9.76,0,0,0,2.1-.29.2.2,0,0,0,.06-.35c-.3-.18-2.88-1.77-3.77-1.32a.62.62,0,0,0-.33.54,1.17,1.17,0,0,0,.4,1A2.44,2.44,0,0,0,399.18,408.52Zm1.55-.56c-1.36.27-2.41.22-2.85-.15a.76.76,0,0,1-.26-.68.25.25,0,0,1,.12-.23C398.2,406.66,399.68,407.35,400.73,408Z" style="fill:#407BFF"></path><path d="M401.24,408.23a.19.19,0,0,0,.1,0,.2.2,0,0,0,.09-.17c0-.1-.2-2.42-1.14-3.18a1,1,0,0,0-.81-.24h0a.61.61,0,0,0-.6.49c-.17.9,1.44,2.66,2.27,3.11ZM399.62,405a.62.62,0,0,1,.43.17,4.49,4.49,0,0,1,.95,2.51c-.82-.63-1.85-2-1.75-2.48,0-.05,0-.17.28-.2h.09Z" style="fill:#407BFF"></path><path d="M329.67,401a.21.21,0,0,0,.17-.1.2.2,0,0,0,0-.22c-.28-.3-2.79-2.9-3.89-2.71a.61.61,0,0,0-.46.38h0a1.08,1.08,0,0,0,0,1c.58,1,2.85,1.48,4.16,1.66Zm-3.62-2.66c.64,0,2.08,1.2,3.08,2.19-1.77-.3-3-.8-3.32-1.38a.68.68,0,0,1,0-.65.2.2,0,0,1,.17-.15Z" style="fill:#407BFF"></path><path d="M329.67,401h.05a.17.17,0,0,0,.13-.14c0-.09.53-2.2-.16-3.33a1.42,1.42,0,0,0-.89-.65h0c-.52-.12-.74.08-.85.27-.43.81.81,3.08,1.59,3.81A.19.19,0,0,0,329.67,401Zm-1.16-3.79.2,0h0a1,1,0,0,1,.65.48,4.42,4.42,0,0,1,.19,2.69c-.74-.89-1.52-2.6-1.26-3.09C328.3,397.33,328.35,397.25,328.51,397.25Zm.24-.15Z" style="fill:#407BFF"></path><path d="M415.07,166.27c.79,1.45,1.44,2.73,2.08,4.11s1.26,2.73,1.87,4.1c1.18,2.76,2.28,5.57,3.25,8.43s1.83,5.8,2.56,8.79l.51,2.27.42,2.31c.15.76.24,1.56.35,2.35l.15,1.18,0,.29.05.49c0,.38,0,.71,0,1a16.53,16.53,0,0,1-1.43,6.09,35.23,35.23,0,0,1-2.29,4.47,69.94,69.94,0,0,1-5.32,7.55,114.56,114.56,0,0,1-12.23,13l-4.48-4c3.21-4.63,6.39-9.41,9.25-14.14a76.71,76.71,0,0,0,3.85-7.12,26.16,26.16,0,0,0,1.33-3.38,6.52,6.52,0,0,0,.39-2.32s0-.05,0,0,0,.06,0-.05l-.05-.23-.21-1c-.14-.63-.26-1.26-.44-1.9l-.5-1.92-.57-1.92c-.8-2.56-1.69-5.13-2.69-7.69s-2.06-5.1-3.18-7.63c-.56-1.27-1.12-2.53-1.71-3.78L404.32,172Z" style="fill:#ff8b7b"></path><path d="M413.56,161.68c7.17,2.73,12,20.06,12,20.06l-14.82,14.8s-6.4-12.83-9-22.4C398.93,163.71,404.87,158.38,413.56,161.68Z" style="fill:#263238"></path><path d="M402.39,227.51l-7.73,2.55,7,7.51s6.1-3.64,4.54-7.09Z" style="fill:#ff8b7b"></path><polygon points="390.9 235.62 396.97 241.55 401.64 237.57 394.65 230.06 390.9 235.62" style="fill:#ff8b7b"></polygon></g></svg>