<svg fill="#000000" preserveAspectRatio="xMidYMid meet" class="iconify iconify--emojione" role="img" aria-hidden="true" xmlns:xlink="http://www.w3.org/1999/xlink" xmlns="http://www.w3.org/2000/svg" viewBox="0 0 64 64">
    <g stroke-width="0" id="SVGRepo_bgCarrier"></g>
    <g stroke-linejoin="round" stroke-linecap="round" id="SVGRepo_tracerCarrier"></g>
    <g id="SVGRepo_iconCarrier" transform="translate(-5, 0)">
        <!-- Snowflakes at different heights -->
        <circle cx="10" cy="48" r="2" fill="#ffffff"/>
        <circle cx="20" cy="50" r="2" fill="#ffffff"/>
        <circle cx="30" cy="46" r="2" fill="#ffffff"/>
        <circle cx="40" cy="48" r="2" fill="#ffffff"/>
        <circle cx="50" cy="50" r="2" fill="#ffffff"/>
        <circle cx="15" cy="43" r="2" fill="#ffffff"/>
        <circle cx="25" cy="41" r="2" fill="#ffffff"/>
        <circle cx="35" cy="43" r="2" fill="#ffffff"/>
        <circle cx="45" cy="45" r="2" fill="#ffffff"/>
        <circle cx="55" cy="41" r="2" fill="#ffffff"/>
        <!--  -->
        <circle cx="10" cy="58" r="2" fill="#ffffff"/>
        <circle cx="20" cy="60" r="2" fill="#ffffff"/>
        <circle cx="30" cy="56" r="2" fill="#ffffff"/>
        <circle cx="40" cy="58" r="2" fill="#ffffff"/>
        <circle cx="50" cy="60" r="2" fill="#ffffff"/>
        <circle cx="15" cy="53" r="2" fill="#ffffff"/>
        <circle cx="25" cy="51" r="2" fill="#ffffff"/>
        <circle cx="35" cy="53" r="2" fill="#ffffff"/>
        <circle cx="45" cy="55" r="2" fill="#ffffff"/>
        <circle cx="55" cy="51" r="2" fill="#ffffff"/>

        <!-- Cloud -->
        <path fill="#ffffff" d="M18.2 32.5c-.8 0-1.6-.1-2.4-.4c-3.1-1-5.3-3.9-5.3-7.2c0-2.2 1-4.3 2.6-5.7c.4-.4.9-.7 1.4-1l.5-1.8c1.3-4.4 5.4-7.5 10-7.5c.5 0 .9 0 1.5.1c.4.1.8.1 1.2.3l.2-.4c1.9-3.3 5.4-5.4 9.2-5.4C43 3.5 47.7 8.2 47.7 14v1c.4.2.9.4 1.3.6c2.8 1.6 4.5 4.6 4.5 7.8c0 4.2-2.9 7.8-7 8.8c-.7.2-1.4.2-2 .2H18.2z"></path>
        <path fill="#b6c1d1" d="M37.1 5c5 0 9 4 9 8.9v.7c-2.1.2-4 1-5.4 2.3c1.1-.6 2.4-1 3.7-1c.5 0 1 .1 1.5.1c.8.2 1.6.5 2.3.9c2.3 1.3 3.8 3.7 3.8 6.5c0 3.6-2.5 6.5-5.8 7.3c-.7.2-1.2.3-1.8.3H18.2c-.7 0-1.3-.1-1.9-.3c-2.4-.8-4.2-3.1-4.2-5.8c0-1.8.8-3.5 2.1-4.6c.6-.5 1.3-.9 2-1.2c.6-.2 1.3-.3 2-.3c2 0 3.7.9 4.9 2.4h.1c-1.3-2.4-3.7-4.1-6.6-4.3c1.1-3.7 4.5-6.4 8.5-6.4c.4 0 .9 0 1.3.1c.8.1 1.6.3 2.3.7c2.7 1.2 4.7 3.7 5.1 6.8V18c0-3.4-1.8-6.5-4.5-8.3C30.8 6.9 33.8 5 37.1 5m0-3C33 2 29.2 4.1 27 7.6h-.3c-.6-.1-1.2-.1-1.7-.1c-5.3 0-10 3.5-11.4 8.6l-.3 1.2c-.4.2-.7.5-1.1.8c-2 1.7-3.1 4.2-3.1 6.9c0 4 2.5 7.4 6.3 8.7c.9.3 1.9.5 2.9.5h26.2c.8 0 1.6-.1 2.4-.3c4.8-1.1 8.2-5.3 8.2-10.3c0-3.8-2-7.3-5.3-9.1c-.2-.1-.3-.2-.5-.3v-.1C49.2 7.4 43.8 2 37.1 2z"></path>
    </g>
</svg>
